<?xml version="1.0" encoding="UTF-8"?>
<!-- Created with Inkscape (http://www.inkscape.org/) -->
<svg width="210mm" height="297mm" version="1.1" viewBox="0 0 210 297" xmlns="http://www.w3.org/2000/svg" xmlns:cc="http://creativecommons.org/ns#" xmlns:dc="http://purl.org/dc/elements/1.1/" xmlns:rdf="http://www.w3.org/1999/02/22-rdf-syntax-ns#">
 <metadata>
  <rdf:RDF>
   <cc:Work rdf:about="">
    <dc:format>image/svg+xml</dc:format>
    <dc:type rdf:resource="http://purl.org/dc/dcmitype/StillImage"/>
    <dc:title/>
   </cc:Work>
  </rdf:RDF>
 </metadata>
 <text transform="scale(.62457 1.6011)" x="101.41886" y="72.64859" fill="#800000" font-family="Impact" font-size="16.945px" letter-spacing="0px" stroke-width=".42363" word-spacing="0px" style="line-height:1.25" xml:space="preserve"><tspan x="101.41886" y="72.64859" fill="#800000" stroke-width=".42363">WATERBEAR COLLECTIVE</tspan></text>
 <g transform="translate(-4.8109 -22.183)">
  <path d="m48.037 142.82c-0.1697-0.44224 0.26473-1.3593 1.0539-2.2247 0.49367-0.54137 0.57371-1.001 0.65619-3.768 0.08162-2.7378 0.03672-3.1733-0.34214-3.3187-0.23985-0.092-0.49724-0.1062-0.57197-0.0315-0.07474 0.0747-0.23626 1.0717-0.35894 2.2155-0.38412 3.5813-1.4818 5.7052-3.4739 6.7214-0.88957 0.45382-1.4646 0.52436-3.755 0.46058-2.6625-0.0742-2.7045-0.0853-2.7045-0.71448 0-0.45715 0.33904-0.87744 1.1906-1.476 0.65484-0.46026 1.3377-1.1251 1.5175-1.4775 0.3434-0.67317 0.46527-4.5229 0.15306-4.8351-0.09987-0.0999-0.55561 0.62443-1.0128 1.6096-0.92091 1.9845-2.257 3.6473-4.526 5.6329l-1.5057 1.3176h-3.9729c-3.2969 0-4.0538-0.0732-4.4482-0.43018-0.69036-0.62476-0.31024-1.1347 2.1101-2.8307 1.1447-0.80211 2.4553-1.9306 2.9124-2.5077 1.1089-1.4001 2.1523-3.6907 2.1555-4.732 0.0025-0.8079-0.03432-0.83728-0.87729-0.70048-0.48393 0.0785-1.6402-0.052-2.5696-0.2901-1.2265-0.31421-1.8738-0.36081-2.3613-0.16998-0.79967 0.31307-3.1623 0.81212-4.6403 0.98013-1.2745 0.14489-2.6813-0.61502-2.9232-1.579-0.21639-0.86217 2.1949-5.6484 3.6299-7.2053 1.2145-1.3176 3.1456-2.4927 5.1141-3.1121 1.6234-0.51075 10.412-2.5383 15.081-3.4792 1.8918-0.38122 4.6897-1.0581 6.2177-1.5042 3.8305-1.1184 7.8866-1.3223 10.501-0.52812 3.5926 1.0912 5.3686 3.5658 6.0432 8.4205 0.55972 4.0281 0.95976 5.2084 2.6089 7.6975 1.9054 2.8759 2.6058 4.7276 2.7479 7.2648 0.09869 1.7626 0.03487 2.1693-0.46802 2.983-0.74696 1.2086-1.7622 1.7231-3.4002 1.7231-1.6921 0-2.0524-0.81841-0.93649-2.1273 0.60245-0.70663-0.56035-2.4589-2.6504-3.994-0.56754-0.41684-1.1066-0.75789-1.1979-0.75789-0.09129 0-0.16272 0.9436-0.15874 2.0969 0.0085 2.4737-0.40605 3.2462-2.2471 4.187-0.98227 0.50191-1.587 0.59531-3.8547 0.59531-3.563 0-4.1954-0.64634-2.0594-2.1048 1.4685-1.0027 1.7021-1.5103 1.3814-3.0023-0.15023-0.69887-0.39369-1.2305-0.54102-1.1814-0.14733 0.0491-0.83928 1.3688-1.5377 2.9327-0.69839 1.5639-1.4149 3.0182-1.5922 3.2319-0.45088 0.54327-4.1796 0.55372-4.3873 0.0123zm-14.905-1.4988c1.2874-0.32105 3.2475-1.6625 4.2159-2.8853 1.4055-1.7745 2.9079-5.1425 3.5696-8.002 0.34568-1.4937 0.63726-2.4778 0.64797-2.1867 0.0324 0.88059 0.95978 2.1341 1.9045 2.5742 1.1322 0.52743 6.2496 1.1073 7.7656 0.87995 0.63361-0.095 1.3106-0.36315 1.5044-0.59585 0.19864-0.23852 0.41008-1.3583 0.48466-2.5667l0.13229-2.1436 0.48103 1.9646c0.26457 1.0805 1.2133 3.4618 2.1083 5.2917 1.3539 2.7682 1.6452 3.6084 1.7339 5.0015 0.06527 1.0248-0.0085 1.7896-0.19008 1.9712-0.1632 0.1632-0.29673 0.49641-0.29673 0.74047 0 0.37143 0.20484 0.42235 1.2568 0.31246 3.1336-0.32738 3.8991-1.3923 3.4994-4.8685-0.46155-4.0145-0.41518-4.2946 1.2599-7.6111 1.5173-3.0042 1.5246-3.0297 1.5182-5.3594-0.0043-1.5799 0.06717-2.1468 0.21997-1.744 0.12452 0.32829 0.22861 1.5897 0.23132 2.8032 0.0046 2.0684-0.06512 2.347-1.1159 4.4583-0.77567 1.5584-1.1209 2.5898-1.1209 3.3488 0 0.98707 0.12728 1.2028 1.2724 2.1563 3.0075 2.5043 3.8393 3.4379 4.4802 5.0283 0.35185 0.87313 0.81753 1.6246 1.0348 1.6698 0.75578 0.15748 1.333-1.2174 1.3154-3.1334-0.01876-2.0486-0.89104-4.2213-2.7203-6.7758-1.3894-1.9403-2.0428-3.7431-2.3985-6.618-0.62282-5.0335-1.8686-7.3479-4.7046-8.7406-1.3895-0.68233-1.7439-0.74076-4.2927-0.70771-1.6731 0.0217-3.357 0.20575-4.2333 0.46272-1.5935 0.46724-6.188 1.4632-9.9219 2.1507-3.6085 0.66446-11.867 2.7067-14.581 3.6056-2.9234 0.96842-4.8693 2.5013-5.8151 4.581-0.3339 0.73416-0.85155 1.692-1.1503 2.1286-1.2568 1.8363-0.19035 2.9645 2.045 2.1633 0.68462-0.24537 1.5718-0.44554 1.9716-0.44482 0.46066 8.2e-4 1.1032-0.33869 1.7545-0.92708 0.95393-0.86183 1.0377-0.89003 1.1675-0.39334 0.19833 0.75841 1.9023 1.406 3.2883 1.2498 1.6493-0.1859 1.9216-0.52128 1.9553-2.4079 0.02711-1.5162 0.04172-1.5527 0.22554-0.56292 0.82982 4.4682 0.87872 5.5091 0.33141 7.0559-0.66502 1.8795-1.7234 3.4262-3.9045 5.706-0.93968 0.98221-1.7085 1.8096-1.7085 1.8388 0 0.12857 3.9287-0.25656 4.7782-0.46839zm-9.6812-14.807c-0.25141-0.4068 0.09296-0.66926 0.43255-0.32967 0.19002 0.19002 0.19458 0.33801 0.01387 0.4497-0.14815 0.0916-0.34904 0.0375-0.44642-0.12003zm2.9555-2.287c-0.34075-0.34075-0.16834-1.4039 0.22768-1.4039 0.24439 0 0.39688 0.24815 0.39688 0.64584 0 0.66389-0.32466 1.058-0.62455 0.75807zm18.501 16.724c2.721-1.5946 3.3319-6.9968 0.95041-8.4036-0.4134-0.2442-1.2441-0.52276-1.846-0.619-1.0283-0.16444-1.112-0.1291-1.3859 0.58547-0.21062 0.54936-0.21227 1.1583-0.0059 2.1937 0.41926 2.1038 0.35075 3.7186-0.2293 5.4046l-0.51491 1.4966h0.95469c0.53952 0 1.4428-0.28603 2.077-0.65772zm6.7315 0.0624c1.1267-0.76732 2.6437-3.6025 2.6437-4.9408 0-1.0682-0.45695-1.4409-2.2989-1.8749-1.0597-0.2497-1.1478-0.0567-1.3309 2.9132-0.09864 1.6004-0.29298 2.5047-0.67388 3.1358-0.44504 0.73734-0.47308 0.92619-0.16632 1.1204 0.56131 0.35543 0.87412 0.29486 1.8263-0.35359z" fill="#800000" stroke-width=".26458"/>
  <g fill="#fff">
   <path transform="scale(.26458)" d="m116.12 526.85c13.258-15.099 15.449-22.214 12.478-40.51-1.4943-9.2016-2.9928-10.829-2.9928-3.251 0 7.0393-1.724 8.4907-9.4243 7.9337-4.9613-0.35887-6.4391-0.90879-8.3206-3.0961l-2.2878-2.6597-3.6364 2.8898c-3.6201 2.8769-16.712 6.6539-20.538 5.925-3.1026-0.59129-2.5286-4.6867 1.7818-12.714 4.4713-8.3273 8.2047-12.813 13.041-15.67l3.0014-1.773-0.1932 2.7604c-0.13404 1.9152 0.34807 2.8725 1.5746 3.1266 1.3796 0.28578 1.7678-0.31557 1.7678-2.7383 0-1.7721-0.54192-3.1352-1.2627-3.1759-6.4656-0.36537 34.156-11.326 65.407-17.648 10.001-2.0231 22.728-4.7727 28.284-6.1102 7.3792-1.7764 12.975-2.4322 20.762-2.4331 9.4472-1e-3 11.259 0.29654 15.911 2.6152 2.8879 1.4391 6.6229 4.2801 8.3001 6.3134 3.1129 3.774 7.1059 12.992 6.978 16.109-0.0597 1.4535-0.19391 1.4158-0.84044-0.23634-0.71262-1.821-0.81825-1.7837-1.4304 0.50508-0.36354 1.3592-0.6672 5.0266-0.67479 8.1498-0.0116 4.7656-0.86643 7.4453-5.3171 16.668l-5.3033 10.989 0.27767 14.414c0.17578 9.1245-0.13209 15.18-0.83892 16.5-1.4604 2.7289-6.9027 4.9458-12.141 4.9458-3.6384 0-4.0688-0.22947-3.3154-1.7678 0.47614-0.97228 0.83206-4.7225 0.79096-8.3338-0.0648-5.6955-0.78043-8.106-5.398-18.183-2.9278-6.3892-6.5946-15.481-8.1485-20.203l-2.8252-8.5863-0.67853 6.0609c-1.1653 10.409-1.5899 11.677-4.2475 12.687-5.4277 2.0636-25.745 0.31901-32.382-2.7804-2.032-0.94907-3.9215-2.9816-5.0508-5.4331-1.829-3.9704-3.3195-5.1229-3.3195-2.5667 0 3.2809-5.4006 19.643-8.7522 26.516-6.942 14.236-15.351 20.83-28.792 22.575-4.0744 0.52903-7.9929 0.9759-8.7077 0.99306-0.71482 0.0172 2.1928-3.9463 6.4614-8.8076zm-25.091-48.929c-0.62435-1.873-2.799-2.1837-2.799-0.39985 0 0.87967 0.71973 1.5994 1.5994 1.5994 0.87968 0 1.4195-0.5398 1.1996-1.1996z"/>
   <path transform="scale(.26458)" d="m259.55 527.82c-2.6736-5.309-5.422-8.648-12.135-14.742-10.461-9.4975-10.616-10.31-4.6375-24.356 3.489-8.1974 4.055-10.569 4.1457-17.374l0.10505-7.8802 1.7634 10.118c1.9124 10.972 4.2084 17.062 9.1292 24.215 8.4833 12.33 11.959 25.454 8.7645 33.099-0.86976 2.0816-2.0534 3.7848-2.6304 3.7848s-2.6044-3.0886-4.5054-6.8636z"/>
   <path transform="scale(.26458)" d="m188.8 533.78c-0.30689-0.49656 0.0757-2.4285 0.85026-4.2932 0.77453-1.8647 1.7039-6.5723 2.0653-10.461 1.0916-11.748 1.1774-11.947 4.8425-11.214 5.2091 1.0418 7.833 3.3046 7.833 6.7548 0 8.5096-12.606 24.044-15.591 19.213z"/>
   <path transform="scale(.26458)" d="m159.43 533.69c0.33767-0.54635 1.2521-4.0434 2.032-7.7712 1.1159-5.3335 1.1889-8.4812 0.34241-14.771-0.75184-5.5866-0.75671-8.6932-0.0162-10.319 0.97447-2.1387 1.3996-2.249 5.295-1.3738 2.3295 0.52341 5.081 1.4042 6.1145 1.9573 3.069 1.6425 4.932 6.4875 4.9082 12.765-0.0352 9.2906-4.4369 16.787-11.408 19.428-3.5712 1.3531-8.0848 1.4053-7.2682 0.0841z"/>
   <path transform="scale(.26458)" d="m115.99 526.85c10.199-11.774 13.654-18.696 13.654-27.353 0-7.4579-1.8018-19.392-3.1451-20.832-0.52892-0.56679-0.89552 1.1611-0.89552 4.221 0 7.261-1.6635 8.6971-9.4243 8.1357-4.9613-0.35887-6.4391-0.90879-8.3206-3.0961l-2.2878-2.6597-3.607 2.8665c-3.6898 2.9323-16.56 6.713-20.375 5.9852-3.1369-0.59845-2.8171-4.2225 1.0503-11.902 4.0166-7.9759 8.7668-13.728 13.733-16.63 3.2616-1.906 3.2782-1.9051 2.7432 0.14071-0.65946 2.5218 0.6029 4.8118 2.1316 3.867 1.4829-0.9165 1.4463-5.3495-0.0483-5.8477-3.0381-1.0127 23.269-8.4502 51.174-14.468 9.4449-2.0368 25.276-5.4742 35.181-7.6386 14.697-3.2119 19.99-3.9337 28.789-3.9259 10.138 9e-3 11.099 0.19144 16.099 3.0591 2.9248 1.6773 6.6493 4.8878 8.2768 7.1345 3.2384 4.4705 6.5661 13.313 5.7608 15.308-0.2814 0.69696-0.58849 0.35701-0.68844-0.76211-0.34866-3.9037-1.7922 2.7029-1.8987 8.6898-0.0824 4.6356-1.06 7.6507-5.404 16.668l-5.3033 11.008 0.29155 14.388c0.18706 9.2318-0.11359 15.145-0.83892 16.5-1.4691 2.745-6.8952 4.9717-12.115 4.9717-3.8657 0-4.0862-0.15116-3.3154-2.2728 0.45414-1.2501 0.77315-5.0003 0.70895-8.3338-0.0967-5.017-1.024-8.0439-5.384-17.574-2.897-6.3321-6.5271-15.378-8.0669-20.103l-2.7997-8.5897-1.0773 8.4388c-0.76849 6.0198-1.5908 8.8143-2.8685 9.7486-3.4997 2.5591-26.248 0.93847-33.347-2.3757-1.7339-0.80946-3.9965-3.0388-5.0279-4.9541-1.0314-1.9153-2.1355-3.4823-2.4534-3.4823-0.31791 0-1.7917 4.3181-3.2751 9.5957-5.2304 18.609-12.902 30.794-22.771 36.165-4.313 2.3474-14.213 4.5497-21.2 4.7159-0.7211 0.0172 2.1342-3.9463 6.3451-8.8076zm-24.964-48.929c-0.62435-1.873-2.799-2.1837-2.799-0.39985 0 0.87967 0.71973 1.5994 1.5994 1.5994 0.87968 0 1.4195-0.5398 1.1996-1.1996z"/>
  </g>
 </g>
</svg>
