<?xml version="1.0" encoding="UTF-8" standalone="no"?>
<!-- Created with Inkscape (http://www.inkscape.org/) -->

<svg
   xmlns:dc="http://purl.org/dc/elements/1.1/"
   xmlns:cc="http://creativecommons.org/ns#"
   xmlns:rdf="http://www.w3.org/1999/02/22-rdf-syntax-ns#"
   xmlns:svg="http://www.w3.org/2000/svg"
   xmlns="http://www.w3.org/2000/svg"
   xmlns:sodipodi="http://sodipodi.sourceforge.net/DTD/sodipodi-0.dtd"
   xmlns:inkscape="http://www.inkscape.org/namespaces/inkscape"
   width="210mm"
   height="297mm"
   viewBox="0 0 210 297"
   version="1.1"
   id="svg8"
   inkscape:version="0.92.3 (2405546, 2018-03-11)"
   sodipodi:docname="polar_red.svg">
  <defs
     id="defs2" />
  <sodipodi:namedview
     id="base"
     pagecolor="#ffffff"
     bordercolor="#666666"
     borderopacity="1.0"
     inkscape:pageopacity="0.0"
     inkscape:pageshadow="2"
     inkscape:zoom="1.979899"
     inkscape:cx="348.10496"
     inkscape:cy="712.0858"
     inkscape:document-units="mm"
     inkscape:current-layer="layer1"
     showgrid="false"
     showguides="false"
     inkscape:window-width="1920"
     inkscape:window-height="1151"
     inkscape:window-x="0"
     inkscape:window-y="25"
     inkscape:window-maximized="1" />
  <metadata
     id="metadata5">
    <rdf:RDF>
      <cc:Work
         rdf:about="">
        <dc:format>image/svg+xml</dc:format>
        <dc:type
           rdf:resource="http://purl.org/dc/dcmitype/StillImage" />
        <dc:title></dc:title>
      </cc:Work>
    </rdf:RDF>
  </metadata>
  <g
     inkscape:label="Layer 1"
     inkscape:groupmode="layer"
     id="layer1">
    <path
       style="fill:#800000;stroke-width:0.26458332"
       d="m 32.391356,134.04998 c -6.070019,-4.00025 3.863288,-7.4571 6.687448,-9.95923 6.039286,-4.5786 11.095524,-11.4771 11.113649,-19.28755 -4.5639,0.874 -9.259591,0.10824 -13.421853,-1.89203 -3.211803,2.73736 -7.732899,1.44083 -11.215662,3.56497 -4.268705,1.61142 -12.011836,-1.4006 -10.152035,-6.729983 2.999071,-5.229133 4.823849,-11.139009 8.751322,-15.743609 8.102014,-9.139644 20.990694,-10.002865 32.063038,-12.971462 10.644379,-2.617878 21.443153,-4.540261 32.144018,-6.865918 11.233,-3.800356 24.005509,-6.807153 35.362699,-1.868493 8.1783,3.625575 12.23518,12.652117 12.67893,21.193327 0.57597,6.390253 1.62902,13.031324 5.8127,18.159198 4.28723,6.34549 8.49691,13.41351 8.06848,21.36739 1.14927,6.75014 -4.73429,12.39019 -11.44292,11.25727 -5.1077,0.10732 -2.61509,-5.05295 -0.55584,-6.88668 -1.65549,-4.83817 -7.30142,-9.95794 -11.09916,-11.05884 0.40082,5.12185 1.54306,11.90242 -3.42664,15.26228 -5.6241,3.71891 -12.74629,2.73926 -19.12087,2.54934 -6.379632,-4.6882 7.90763,-5.95451 5.13136,-12.21853 -1.09862,-4.84316 -2.81502,-10.96633 -7.05084,-13.74707 -3.88102,1.36578 -8.046567,1.29418 -12.108983,0.97107 -0.497337,7.76538 -0.864253,16.65596 -7.125515,22.1568 -2.495128,1.45845 -4.987453,3.46078 -8.045523,2.95675 -3.523179,0.0436 -7.046358,0.0872 -10.569537,0.13077 -4.465366,-4.48216 3.382846,-5.94023 5.684329,-8.65225 2.777752,-4.17324 1.548013,-9.63906 1.030654,-14.31266 -0.869453,-0.70722 -2.084137,5.36417 -3.366035,6.64729 -3.570253,6.71626 -9.441563,11.71097 -15.372318,16.28466 -6.817663,-0.0708 -13.647624,0.11342 -20.454896,-0.30681 z m 16.197491,-3.83089 c 10.793396,-2.16656 16.831256,-12.92945 20.010154,-22.55421 1.877259,-3.60862 1.941242,-12.180761 3.639455,-13.360673 -0.908298,6.698413 5.281171,9.714403 10.993115,9.814483 5.759297,0.58271 11.858087,1.6784 17.484829,-0.0179 2.78724,-4.05152 0.49667,-9.899191 1.52158,-14.617773 1.36211,4.308003 1.89821,10.402499 4.46025,14.920003 2.79333,6.87745 7.99426,13.37463 7.43458,21.14149 0.17587,2.32146 -4.2439,6.48433 0.29789,5.21553 5.42296,0.31192 11.98565,-2.61983 10.71831,-9.12381 -0.23794,-6.40065 -2.86998,-13.21963 0.56329,-19.24845 3.20653,-5.667419 7.39268,-11.45829 6.58491,-18.358356 0.0781,-1.81136 -1.60458,-9.914538 0.30986,-4.497673 1.15447,4.672625 1.45964,9.835286 0.0618,14.476096 -1.56298,5.364765 -6.88292,10.297713 -4.85039,16.215613 3.3526,4.46915 9.18223,6.45225 12.20536,11.3296 3.06563,2.31448 3.16677,13.88527 7.5189,6.57421 2.85133,-7.68025 -1.09654,-15.781 -5.44865,-22.08441 -3.87661,-5.14612 -6.71516,-11.115677 -7.02455,-17.640147 -0.81118,-7.966752 -2.0186,-17.320776 -9.59306,-21.853793 -8.40178,-5.421582 -18.95298,-3.679955 -27.998252,-1.087396 -10.993741,3.444421 -22.639531,4.004549 -33.736998,7.090593 -10.594439,2.804275 -21.584301,4.510621 -31.713251,8.811591 -4.439104,2.503476 -9.474478,6.405316 -10.063368,11.525722 -1.223901,2.45998 -4.845077,5.337956 -3.987781,8.11342 3.030867,4.76334 8.440292,-0.67 12.622475,-0.31887 3.773673,0.7323 6.237241,-8.454855 7.079202,-2.04917 3.274357,2.99811 9.461785,3.11549 12.763975,0.716593 0.151152,-3.148587 -0.410183,-6.505797 0.831989,-9.453715 1.034763,4.376773 0.921788,10.165332 2.187795,14.963992 0.435779,9.33949 -6.521383,16.814 -12.544379,23.10643 -2.261779,1.89143 -4.896485,3.65347 -0.66019,2.89966 2.783534,-0.1009 5.577144,-0.20799 8.33117,-0.64872 z M 24.67522,91.817157 c -0.198374,-5.3299 4.879033,1.85844 0,0 z m 8.435503,-5.37732 c -1.647543,-1.706866 -1.583194,-5.301525 1.217363,-4.507226 0.323317,1.109879 -0.291301,4.625301 -1.217363,4.507226 z m 42.862494,44.055083 c 6.119343,-0.54536 10.586813,-6.17024 10.701071,-12.15714 1.230744,-5.16795 -0.617766,-11.55787 -6.704047,-12.17511 -7.240135,-3.59516 -5.81479,4.92141 -4.611528,9.19769 1.178874,5.26228 -0.910641,11.17719 -2.473223,15.48374 1.039057,-0.0162 2.058093,-0.23769 3.087727,-0.34918 z"
       id="path880"
       inkscape:connector-curvature="0" />
    <text
       xml:space="preserve"
       style="font-style:normal;font-weight:normal;font-size:10.58333302px;line-height:1.25;font-family:'Arial Black';letter-spacing:0px;word-spacing:0px;fill:#000000;fill-opacity:1;stroke:none;stroke-width:0.26458332;-inkscape-font-specification:'Arial Black, ';font-stretch:normal;font-variant:normal;"
       x="-47.058037"
       y="67.568451"
       id="text892"><tspan
         sodipodi:role="line"
         id="tspan890"
         x="-47.058037"
         y="76.93222"
         style="stroke-width:0.26458332;-inkscape-font-specification:'Arial Black, ';font-family:'Arial Black';font-weight:normal;font-style:normal;font-stretch:normal;font-variant:normal;fill:#000000;" /></text>
    <text
       xml:space="preserve"
       style="font-style:normal;font-weight:normal;font-size:13.04493904px;line-height:1.25;font-family:sans-serif;letter-spacing:0px;word-spacing:0px;fill:#800000;fill-opacity:1;stroke:none;stroke-width:0.32612348"
       x="22.001415"
       y="179.30267"
       id="text896"
       transform="scale(1.2325927,0.81129799)"><tspan
         sodipodi:role="line"
         id="tspan894"
         x="22.001415"
         y="179.30267"
         style="font-style:normal;font-variant:normal;font-weight:normal;font-stretch:normal;font-family:'Ubuntu Condensed';-inkscape-font-specification:'Ubuntu Condensed, ';fill:#800000;stroke-width:0.32612348">waterbear collective</tspan></text>
    <path
       style="fill:#800000;stroke:none;stroke-width:0.2706365px;stroke-linecap:butt;stroke-linejoin:miter;stroke-opacity:1"
       d="m 92.648127,109.0452 c 0.854757,3.08732 0.0086,6.22282 0.647437,9.34448 l -0.651033,7.89007 c -1.527627,2.11875 -4.129171,3.96255 -3.961317,6.87262 0.213277,2.47537 3.13023,1.66658 4.7848,1.92361 1.919944,0.23386 3.83523,0.0658 5.687879,-0.47381 1.596407,-0.006 1.619007,-2.06067 2.375007,-3.1215 0.84166,-2.02792 4.3411,-8.56252 4.9566,-10.65535 0.56957,-4.74659 5.78589,-4.11381 3.66743,-4.98552 -1.42067,-1.19582 -5.78563,-9.25745 -8.01832,-8.49249 -3.511418,0.28439 -5.977079,1.4135 -9.488483,1.69789 z"
       id="path898"
       inkscape:connector-curvature="0"
       sodipodi:nodetypes="ccccccccccc" />
    <path
       style="fill:#ffffff;stroke:none;stroke-width:0.27492985px;stroke-linecap:butt;stroke-linejoin:miter;stroke-opacity:1"
       d="m 96.735729,111.04657 c -1.231506,3.58657 -0.711536,4.85202 -1.003873,7.65847 0.154966,8.74565 -1.217794,6.28825 -2.496736,9.46997 -1.259429,2.16917 2.21314,2.47042 3.594953,1.53379 2.058276,-0.66366 3.214197,-1.59038 4.117647,-3.28482 1.08884,-3.30075 3.90473,-4.47706 4.01009,-11.47098 0.5978,-1.78728 -1.77804,-1.57779 -3.37987,-2.57695 -1.894757,-1.34306 -2.082773,-0.56755 -4.842211,-1.32948 z"
       id="path900"
       inkscape:connector-curvature="0"
       sodipodi:nodetypes="cccccccc" />
  </g>
</svg>
